<?xml version="1.0" standalone="no"?>
<!DOCTYPE svg PUBLIC "-//W3C//DTD SVG 20010904//EN"
 "http://www.w3.org/TR/2001/REC-SVG-20010904/DTD/svg10.dtd">
<svg version="1.0" xmlns="http://www.w3.org/2000/svg"
 width="152.000000pt" height="152.000000pt" viewBox="0 0 152.000000 152.000000"
 preserveAspectRatio="xMidYMid meet">
<metadata>
Created by potrace 1.10, written by Peter Selinger 2001-2011
</metadata>
<g transform="translate(0.000000,152.000000) scale(0.100000,-0.100000)"
fill="#000000" stroke="none">
<path d="M196 1320 c-37 -12 -85 -56 -102 -97 -11 -26 -14 -123 -14 -487 0
-509 0 -511 68 -563 l37 -28 565 -2 565 -3 40 23 c22 12 50 40 62 62 23 40 23
41 23 503 0 371 -3 469 -14 495 -16 39 -61 82 -99 96 -35 13 -1087 14 -1131 1z
m1150 -36 c15 -11 37 -33 48 -48 20 -27 21 -41 24 -492 2 -450 2 -465 -18
-504 -13 -26 -34 -47 -60 -60 -38 -19 -58 -20 -582 -20 -617 0 -593 -3 -635
80 -23 44 -23 47 -23 492 0 482 1 488 52 536 14 13 38 27 54 32 16 5 273 8
571 7 530 -2 542 -2 569 -23z"/>
<path d="M419 1223 c-181 -3 -198 -5 -214 -23 -17 -19 -19 -51 -22 -408 -2
-220 0 -406 5 -432 7 -31 10 86 11 378 1 271 5 430 11 443 10 18 27 19 550 19
523 0 540 -1 550 -19 6 -13 11 -174 12 -443 2 -331 3 -379 8 -218 3 113 3 310
1 438 -4 225 -5 234 -25 247 -23 14 -516 25 -887 18z"/>
<path d="M393 1050 c-40 -24 -54 -50 -55 -100 -1 -100 105 -162 190 -110 70
43 78 136 17 197 -27 27 -41 33 -76 33 -26 0 -57 -8 -76 -20z m135 -28 c42
-39 50 -76 26 -119 -37 -70 -119 -81 -168 -22 -83 98 49 228 142 141z"/>
<path d="M863 813 c-14 -5 -243 -298 -243 -309 0 -16 57 48 147 164 71 92 99
122 117 122 26 0 60 -35 147 -150 94 -126 246 -317 258 -325 6 -3 11 -3 11 2
0 10 -368 485 -383 495 -13 9 -36 9 -54 1z"/>
<path d="M453 635 c-21 -15 -233 -306 -233 -320 0 -17 44 33 103 118 151 216
161 222 226 133 41 -55 61 -74 61 -59 0 16 -88 130 -105 137 -23 9 -28 8 -52
-9z"/>
</g>
</svg>
